# xmcd
#
# Track frame offsets: 
#        150
#        31215
#        60777
#        92638
#        118697
#        144008
#        175141
#        196690
#        230222
#        276578
#        289315
#        303359
#        318861
#
# Disc length: 4655 seconds
#
# Revision: 0
# Processed by: cddbd v1.5.1PL0 Copyright (c) Steve Scherf et al.
# Submitted via: ExactAudioCopy v0.95a5
#
DISCID=af122d0d
DTITLE=Robert Cray, Jimmie Vaughan, Hubert Sumlin - Crossroads Guitar 
DTITLE=Festival 6-6-04, Dallas Tx
DYEAR=2004
DGENRE=Blues
TTITLE0=Our Last Time
TTITLE1=Right Next Door
TTITLE2=Survivor
TTITLE3=Time Makes Two
TTITLE4=Smoking Gun
TTITLE5=Dirty Girl
TTITLE6=Motor Head Baby
TTITLE7=Texas Flood
TTITLE8=Ooo Wee Wee Baby
TTITLE9=Shake For Me
TTITLE10=Built For Comfort
TTITLE11=Evil
TTITLE12=Three Hundred Pounds Of Joy -
EXTD=
EXTT0=
EXTT1=
EXTT2=
EXTT3=
EXTT4=
EXTT5=
EXTT6=
EXTT7=
EXTT8=
EXTT9=
EXTT10=
EXTT11=
EXTT12=
PLAYORDER=
